<?xml version="1.0" encoding="UTF-8" standalone="no"?>
<!-- Created with Inkscape (http://www.inkscape.org/) -->

<svg
   width="15.999999"
   height="16"
   viewBox="0 0 4.233333 4.2333332"
   version="1.1"
   id="svg1"
   inkscape:export-filename="favicon-16.svg"
   inkscape:export-xdpi="96"
   inkscape:export-ydpi="96"
   xmlns:inkscape="http://www.inkscape.org/namespaces/inkscape"
   xmlns:sodipodi="http://sodipodi.sourceforge.net/DTD/sodipodi-0.dtd"
   xmlns="http://www.w3.org/2000/svg"
   xmlns:svg="http://www.w3.org/2000/svg">
  <sodipodi:namedview
     id="namedview1"
     pagecolor="#ffffff"
     bordercolor="#000000"
     borderopacity="0.25"
     inkscape:showpageshadow="2"
     inkscape:pageopacity="0.0"
     inkscape:pagecheckerboard="0"
     inkscape:deskcolor="#d1d1d1"
     inkscape:document-units="px"
     inkscape:zoom="20.036755"
     inkscape:cx="5.2653235"
     inkscape:cy="11.104592"
     inkscape:window-width="1366"
     inkscape:window-height="697"
     inkscape:window-x="1912"
     inkscape:window-y="213"
     inkscape:window-maximized="1"
     inkscape:current-layer="layer1" />
  <defs
     id="defs1">
    <inkscape:path-effect
       effect="perspective-envelope"
       up_left_point="1.2922605,0.92065176"
       up_right_point="3.0747687,0.92065176"
       down_left_point="1.2922605,3.7737649"
       down_right_point="3.0747687,3.7737649"
       id="path-effect8"
       is_visible="true"
       lpeversion="1"
       deform_type="perspective"
       horizontal_mirror="false"
       vertical_mirror="false"
       overflow_perspective="false" />
  </defs>
  <g
     inkscape:label="Layer 1"
     inkscape:groupmode="layer"
     id="layer1">
    <path
       id="path1"
       style="fill:#000000;stroke-width:1.32292;stroke-linecap:round;stroke-linejoin:round;paint-order:markers stroke fill"
       d="M 2.1166666,0 A 2.1166666,2.1166666 0 0 0 0,2.1166666 2.1166666,2.1166666 0 0 0 1.850533,4.214213 1.8520833,1.8520833 0 0 1 0.26458333,2.38125 1.8520833,1.8520833 0 0 1 2.1166666,0.52916666 1.8520833,1.8520833 0 0 1 3.9687499,2.38125 1.8520833,1.8520833 0 0 1 2.3828002,4.214213 2.1166666,2.1166666 0 0 0 4.2333332,2.1166666 2.1166666,2.1166666 0 0 0 2.1166666,0 Z" />
    <g
       id="g8"
       inkscape:path-effect="#path-effect8">
      <path
         style="fill:#000000;stroke-width:1.18326;stroke-linecap:round;stroke-linejoin:round;paint-order:markers stroke fill"
         id="rect1"
         width="0.52916664"
         height="2.1166666"
         x="2.7591286"
         y="-0.054443672"
         rx="3.0293547e-06"
         ry="0.35759649"
         transform="rotate(30)"
         sodipodi:type="rect"
         d="m 2.7591316,-0.05444366 0.5291605,10e-9 c 1.7e-6,0 3.1e-6,0.15948803 3.1e-6,0.35759648 l 0,1.40147357 c 0,0.1981085 -1.4e-6,0.3575965 -3e-6,0.3575965 l -0.5291606,0 c -1.7e-6,0 -3e-6,-0.159488 -3e-6,-0.3575965 l -10e-8,-1.40147357 c 0,-0.19810846 1.4e-6,-0.35759649 3.1e-6,-0.35759649 z" />
      <path
         d="m 2.7618363,0.92065176 c -0.075822,0.0134175 -0.1415234,0.0592256 -0.1797747,0.12534294 -0.00119,0.00207 -0.00249,0.00417 -0.00362,0.00627 l -0.062012,0.1074071 c -0.018572,0.032169 -0.033591,0.058178 -0.03359,0.058179 l 0.080556,0.046509 0.2971606,0.1715657 0.080556,0.046509 c 1.4e-6,8e-7 0.015017,-0.02601 0.03359,-0.058179 l 0.062012,-0.1074074 c 0.00125,-0.00202 0.00242,-0.0042 0.00362,-0.00627 0.038134,-0.066185 0.044955,-0.145988 0.018663,-0.218361 z"
         style="fill:#000000;stroke-width:0.512366;stroke-linecap:round;stroke-linejoin:round;paint-order:markers stroke fill"
         id="path8"
         inkscape:original-d="m 2.7618363,0.92065176 c -0.075822,0.0134175 -0.1415234,0.0592256 -0.1797747,0.12534294 -0.00119,0.00207 -0.00249,0.00417 -0.00362,0.00627 l -0.062012,0.1074071 c -0.018572,0.032169 -0.033591,0.058178 -0.03359,0.058179 l 0.080556,0.046509 0.2971606,0.1715657 0.080556,0.046509 c 1.4e-6,8e-7 0.015017,-0.02601 0.03359,-0.058179 l 0.062012,-0.1074074 c 0.00125,-0.00202 0.00242,-0.0042 0.00362,-0.00627 0.038134,-0.066185 0.044955,-0.145988 0.018663,-0.218361 z" />
      <path
         d="m 1.2924418,3.2801988 -1.813e-4,0.4581671 0.061312,0.035399 0.3966937,-0.2292405 z"
         style="fill:#000000;stroke-width:0.512366;stroke-linecap:round;stroke-linejoin:round;paint-order:markers stroke fill"
         id="path6"
         inkscape:original-d="m 1.2924418,3.2801988 -1.813e-4,0.4581671 0.061312,0.035399 0.3966937,-0.2292405 z" />
    </g>
  </g>
</svg>
